<svg xmlns="http://www.w3.org/2000/svg" width="83.083" height="83.083" viewBox="0 0 83.083 83.083">
  <g id="shape0" transform="translate(-1280.977 -560.237)">
    <line id="svg_79" y1="55.492" stroke-width="5" transform="translate(1283.477 574.004)" stroke="#000" stroke-linecap="round" stroke-linejoin="round" fill="none"/>
    <line id="svg_80" y2="55.492" stroke-width="5" transform="translate(1361.56 574.004)" stroke="#000" stroke-linecap="round" stroke-linejoin="round" fill="none"/>
    <path id="svg_81" d="M176.56,222.5a11.228,11.228,0,0,1-11.267,11.324" transform="translate(1185 407)" fill="none" stroke="#000" stroke-linecap="round" stroke-linejoin="round" stroke-width="5"/>
    <line id="svg_82" x1="55.415" stroke-width="5" transform="translate(1294.801 640.744)" stroke="#000" stroke-linecap="round" stroke-linejoin="round" fill="none"/>
    <path id="svg_83" d="M109.8,233.82a11.209,11.209,0,0,1-11.248-11.248" transform="translate(1185 407)" fill="none" stroke="#000" stroke-linecap="round" stroke-linejoin="round" stroke-width="5"/>
    <path id="svg_84" d="M98.477,167a11.228,11.228,0,0,1,11.248-11.267" transform="translate(1185 407)" fill="none" stroke="#000" stroke-linecap="round" stroke-linejoin="round" stroke-width="5"/>
    <line id="svg_85" x2="55.415" stroke-width="5" transform="translate(1294.801 562.737)" stroke="#000" stroke-linecap="round" stroke-linejoin="round" fill="none"/>
    <path id="svg_86" d="M165.216,155.737A11.248,11.248,0,0,1,176.483,167" transform="translate(1185 407)" fill="none" stroke="#000" stroke-linecap="round" stroke-linejoin="round" stroke-width="5"/>
  </g>
</svg>
