<svg xmlns="http://www.w3.org/2000/svg" width="87.125" height="87.048" viewBox="0 0 87.125 87.048">
  <g id="shape6" transform="translate(-1560.566 -699.749)">
    <path id="svg_26" d="M411.784,372.77a11.841,11.841,0,0,1,14.767,0" transform="translate(1185 407)" fill="none" stroke="#000" stroke-linecap="round" stroke-linejoin="round" stroke-width="5"/>
    <path id="svg_27" d="M411.784,372.77a20.716,20.716,0,0,1-29.114-29.114" transform="translate(1185 407)" fill="none" stroke="#000" stroke-linecap="round" stroke-linejoin="round" stroke-width="5"/>
    <path id="svg_28" d="M382.593,328.889a11.841,11.841,0,0,1,0,14.767" transform="translate(1185 407)" fill="none" stroke="#000" stroke-linecap="round" stroke-linejoin="round" stroke-width="5"/>
    <path id="svg_29" d="M382.593,328.889a20.716,20.716,0,0,1,29.114-29.114" transform="translate(1185 407)" fill="none" stroke="#000" stroke-linecap="round" stroke-linejoin="round" stroke-width="5"/>
    <path id="svg_30" d="M426.474,299.775a11.841,11.841,0,0,1-14.767,0" transform="translate(1185 407)" fill="none" stroke="#000" stroke-linecap="round" stroke-linejoin="round" stroke-width="5"/>
    <path id="svg_31" d="M426.474,299.775a20.716,20.716,0,0,1,29.114,29.114" transform="translate(1185 407)" fill="none" stroke="#000" stroke-linecap="round" stroke-linejoin="round" stroke-width="5"/>
    <path id="svg_32" d="M455.664,343.656a11.841,11.841,0,0,1,0-14.767" transform="translate(1185 407)" fill="none" stroke="#000" stroke-linecap="round" stroke-linejoin="round" stroke-width="5"/>
    <path id="svg_33" d="M455.664,343.656a20.716,20.716,0,0,1-29.114,29.114" transform="translate(1185 407)" fill="none" stroke="#000" stroke-linecap="round" stroke-linejoin="round" stroke-width="5"/>
  </g>
</svg>
