<svg xmlns="http://www.w3.org/2000/svg" width="87.663" height="87.735" viewBox="0 0 87.663 87.735">
  <g id="shape5" transform="translate(-1419.497 -699.178)">
    <path id="svg_72" d="M237.006,357.142a70.508,70.508,0,0,1,34.986-60.657" transform="translate(1185 407)" fill="none" stroke="#000" stroke-linecap="round" stroke-linejoin="round" stroke-width="5"/>
    <path id="svg_73" d="M271.992,296.562a12.548,12.548,0,0,1,12.682,0" transform="translate(1185 407)" fill="none" stroke="#000" stroke-linecap="round" stroke-linejoin="round" stroke-width="5"/>
    <path id="svg_74" d="M284.617,296.562A70.393,70.393,0,0,1,319.6,357.218" transform="translate(1185 407)" fill="none" stroke="#000" stroke-linecap="round" stroke-linejoin="round" stroke-width="5"/>
    <path id="svg_75" d="M319.66,357.142a12.663,12.663,0,0,1-6.312,10.961" transform="translate(1185 407)" fill="none" stroke="#000" stroke-linecap="round" stroke-linejoin="round" stroke-width="5"/>
    <path id="svg_76" d="M313.291,368.1a70.393,70.393,0,0,1-69.972,0" transform="translate(1185 407)" fill="none" stroke="#000" stroke-linecap="round" stroke-linejoin="round" stroke-width="5"/>
    <path id="svg_77" d="M243.318,368.1a12.4,12.4,0,0,1-6.312-10.961" transform="translate(1185 407)" fill="none" stroke="#000" stroke-linecap="round" stroke-linejoin="round" stroke-width="5"/>
  </g>
</svg>
