<svg xmlns="http://www.w3.org/2000/svg" width="87.054" height="87.13" viewBox="0 0 87.054 87.13">
  <g id="shape2" transform="translate(-1560.671 -558.107)">
    <line id="svg_2" y1="8.608" x2="8.608" stroke-width="5" transform="translate(1612.125 564.095)" stroke="#000" stroke-linecap="round" stroke-linejoin="round" fill="none"/>
    <path id="svg_3" d="M435.733,157.1a11.994,11.994,0,0,1,16.91,0" transform="translate(1185 407)" fill="none" stroke="#000" stroke-linecap="round" stroke-linejoin="round" stroke-width="5"/>
    <line id="svg_4" x2="4.094" y2="4.094" stroke-width="5" transform="translate(1637.642 564.095)" stroke="#000" stroke-linecap="round" stroke-linejoin="round" fill="none"/>
    <path id="svg_5" d="M456.736,161.132a12.013,12.013,0,0,1,0,16.929" transform="translate(1185 407)" fill="none" stroke="#000" stroke-linecap="round" stroke-linejoin="round" stroke-width="5"/>
    <line id="svg_6" x1="8.608" y2="8.608" stroke-width="5" transform="translate(1633.128 585.175)" stroke="#000" stroke-linecap="round" stroke-linejoin="round" fill="none"/>
    <path id="svg_7" d="M448.128,202.564a11.114,11.114,0,0,1,0-15.781" transform="translate(1185 407)" fill="none" stroke="#000" stroke-linecap="round" stroke-linejoin="round" stroke-width="5"/>
    <line id="svg_8" x2="8.608" y2="8.589" stroke-width="5" transform="translate(1633.128 609.564)" stroke="#000" stroke-linecap="round" stroke-linejoin="round" fill="none"/>
    <path id="svg_9" d="M456.736,211.153a12.013,12.013,0,0,1,0,16.929" transform="translate(1185 407)" fill="none" stroke="#000" stroke-linecap="round" stroke-linejoin="round" stroke-width="5"/>
    <line id="svg_10" x1="4.094" y2="4.151" stroke-width="5" transform="translate(1637.642 635.082)" stroke="#000" stroke-linecap="round" stroke-linejoin="round" fill="none"/>
    <path id="svg_11" d="M452.738,232.232a11.955,11.955,0,0,1-16.91,0" transform="translate(1185 407)" fill="none" stroke="#000" stroke-linecap="round" stroke-linejoin="round" stroke-width="5"/>
    <line id="svg_12" x1="8.608" y1="8.589" stroke-width="5" transform="translate(1612.125 630.644)" stroke="#000" stroke-linecap="round" stroke-linejoin="round" fill="none"/>
    <path id="svg_13" d="M411.286,223.644a11.095,11.095,0,0,1,15.762,0" transform="translate(1185 407)" fill="none" stroke="#000" stroke-linecap="round" stroke-linejoin="round" stroke-width="5"/>
    <line id="svg_14" x1="8.608" y2="8.589" stroke-width="5" transform="translate(1587.678 630.644)" stroke="#000" stroke-linecap="round" stroke-linejoin="round" fill="none"/>
    <path id="svg_15" d="M402.678,232.232a11.974,11.974,0,0,1-16.929,0" transform="translate(1185 407)" fill="none" stroke="#000" stroke-linecap="round" stroke-linejoin="round" stroke-width="5"/>
    <line id="svg_16" x1="4.074" y1="4.151" stroke-width="5" transform="translate(1566.675 635.082)" stroke="#000" stroke-linecap="round" stroke-linejoin="round" fill="none"/>
    <path id="svg_17" d="M381.675,228.082a11.975,11.975,0,0,1,0-16.929" transform="translate(1185 407)" fill="none" stroke="#000" stroke-linecap="round" stroke-linejoin="round" stroke-width="5"/>
    <line id="svg_18" y1="8.589" x2="8.589" stroke-width="5" transform="translate(1566.675 609.564)" stroke="#000" stroke-linecap="round" stroke-linejoin="round" fill="none"/>
    <path id="svg_19" d="M390.264,186.783a11.114,11.114,0,0,1,0,15.781" transform="translate(1185 407)" fill="none" stroke="#000" stroke-linecap="round" stroke-linejoin="round" stroke-width="5"/>
    <line id="svg_20" x1="8.589" y1="8.608" stroke-width="5" transform="translate(1566.675 585.175)" stroke="#000" stroke-linecap="round" stroke-linejoin="round" fill="none"/>
    <path id="svg_21" d="M381.675,178.175a11.955,11.955,0,0,1,0-16.91" transform="translate(1185 407)" fill="none" stroke="#000" stroke-linecap="round" stroke-linejoin="round" stroke-width="5"/>
    <line id="svg_22" y1="4.094" x2="4.074" stroke-width="5" transform="translate(1566.675 564.095)" stroke="#000" stroke-linecap="round" stroke-linejoin="round" fill="none"/>
    <path id="svg_23" d="M385.788,157.1a12.013,12.013,0,0,1,16.929,0" transform="translate(1185 407)" fill="none" stroke="#000" stroke-linecap="round" stroke-linejoin="round" stroke-width="5"/>
    <line id="svg_24" x2="8.608" y2="8.608" stroke-width="5" transform="translate(1587.678 564.095)" stroke="#000" stroke-linecap="round" stroke-linejoin="round" fill="none"/>
    <path id="svg_25" d="M427.125,165.7a11.114,11.114,0,0,1-15.781,0" transform="translate(1185 407)" fill="none" stroke="#000" stroke-linecap="round" stroke-linejoin="round" stroke-width="5"/>
  </g>
</svg>
