<svg xmlns="http://www.w3.org/2000/svg" width="89.898" height="87.107" viewBox="0 0 89.898 87.107">
  <g id="shape3" transform="translate(-1699.788 -558.223)">
    <path id="svg_35" d="M542.451,235.829a14.48,14.48,0,0,1-13.753-9.966" transform="translate(1185 407)" fill="none" stroke="#000" stroke-linecap="round" stroke-linejoin="round" stroke-width="5"/>
    <line id="svg_36" x1="10.693" y1="32.844" stroke-width="5" transform="translate(1703.005 599.942)" stroke="#000" stroke-linecap="round" stroke-linejoin="round" fill="none"/>
    <path id="svg_37" d="M518,192.942a14.48,14.48,0,0,1,5.241-16.125" transform="translate(1185 407)" fill="none" stroke="#000" stroke-linecap="round" stroke-linejoin="round" stroke-width="5"/>
    <line id="svg_38" y1="20.276" x2="27.947" stroke-width="5" transform="translate(1708.322 563.464)" stroke="#000" stroke-linecap="round" stroke-linejoin="round" fill="none"/>
    <path id="svg_39" d="M551.269,156.464a14.557,14.557,0,0,1,17.005,0" transform="translate(1185 407)" fill="none" stroke="#000" stroke-linecap="round" stroke-linejoin="round" stroke-width="5"/>
    <line id="svg_40" x2="27.947" y2="20.276" stroke-width="5" transform="translate(1753.274 563.464)" stroke="#000" stroke-linecap="round" stroke-linejoin="round" fill="none"/>
    <path id="svg_41" d="M596.2,176.74a14.365,14.365,0,0,1,5.241,16.145" transform="translate(1185 407)" fill="none" stroke="#000" stroke-linecap="round" stroke-linejoin="round" stroke-width="5"/>
    <line id="svg_42" x1="10.674" y2="32.844" stroke-width="5" transform="translate(1775.789 599.942)" stroke="#000" stroke-linecap="round" stroke-linejoin="round" fill="none"/>
    <path id="svg_43" d="M590.789,225.786a14.442,14.442,0,0,1-13.715,9.947" transform="translate(1185 407)" fill="none" stroke="#000" stroke-linecap="round" stroke-linejoin="round" stroke-width="5"/>
    <line id="svg_44" x1="34.565" stroke-width="5" transform="translate(1727.451 642.829)" stroke="#000" stroke-linecap="round" stroke-linejoin="round" fill="none"/>
  </g>
</svg>
