<svg xmlns="http://www.w3.org/2000/svg" width="92.239" height="89.34" viewBox="0 0 92.239 89.34">
  <g id="shape7" transform="translate(-1698.853 -698.673)">
    <line id="svg_45" x1="6.523" y1="8.321" stroke-width="5" transform="translate(1704.152 744.707)" stroke="#000" stroke-linecap="round" stroke-linejoin="round" fill="none"/>
    <path id="svg_46" d="M519.152,337.707a13.39,13.39,0,0,1,2.238-18.631,12.128,12.128,0,0,1,4.572-2.3" transform="translate(1185 407)" fill="none" stroke="#000" stroke-linecap="round" stroke-linejoin="round" stroke-width="5"/>
    <line id="svg_47" y1="2.869" x2="10.176" stroke-width="5" transform="translate(1710.905 720.911)" stroke="#000" stroke-linecap="round" stroke-linejoin="round" fill="none"/>
    <path id="svg_48" d="M543.025,308.823a12.3,12.3,0,0,1-6.944,5.012" transform="translate(1185 407)" fill="none" stroke="#000" stroke-linecap="round" stroke-linejoin="round" stroke-width="5"/>
    <line id="svg_49" y1="8.761" x2="5.892" stroke-width="5" transform="translate(1728.025 707.062)" stroke="#000" stroke-linecap="round" stroke-linejoin="round" fill="none"/>
    <path id="svg_50" d="M548.916,300.062a13.275,13.275,0,0,1,18.344-3.654,13.543,13.543,0,0,1,3.654,3.654" transform="translate(1185 407)" fill="none" stroke="#000" stroke-linecap="round" stroke-linejoin="round" stroke-width="5"/>
    <line id="svg_51" x2="5.892" y2="8.761" stroke-width="5" transform="translate(1755.914 707.062)" stroke="#000" stroke-linecap="round" stroke-linejoin="round" fill="none"/>
    <path id="svg_52" d="M583.749,313.911a12.242,12.242,0,0,1-6.944-5.031" transform="translate(1185 407)" fill="none" stroke="#000" stroke-linecap="round" stroke-linejoin="round" stroke-width="5"/>
    <line id="svg_53" x2="10.196" y2="2.869" stroke-width="5" transform="translate(1768.749 720.911)" stroke="#000" stroke-linecap="round" stroke-linejoin="round" fill="none"/>
    <path id="svg_54" d="M593.945,316.781a13.237,13.237,0,0,1,9.105,16.336,15.9,15.9,0,0,1-2.3,4.591" transform="translate(1185 407)" fill="none" stroke="#000" stroke-linecap="round" stroke-linejoin="round" stroke-width="5"/>
    <line id="svg_55" x1="6.523" y2="8.321" stroke-width="5" transform="translate(1779.155 744.707)" stroke="#000" stroke-linecap="round" stroke-linejoin="round" fill="none"/>
    <path id="svg_56" d="M591.5,354.12a12.625,12.625,0,0,1,2.659-8.168" transform="translate(1185 407)" fill="none" stroke="#000" stroke-linecap="round" stroke-linejoin="round" stroke-width="5"/>
    <line id="svg_57" x2="0.44" y2="10.616" stroke-width="5" transform="translate(1776.496 761.12)" stroke="#000" stroke-linecap="round" stroke-linejoin="round" fill="none"/>
    <path id="svg_58" d="M591.936,364.736a13.39,13.39,0,0,1-12.778,13.773,14.1,14.1,0,0,1-5.088-.8" transform="translate(1185 407)" fill="none" stroke="#000" stroke-linecap="round" stroke-linejoin="round" stroke-width="5"/>
    <line id="svg_59" x1="9.966" y1="3.654" stroke-width="5" transform="translate(1749.181 780.994)" stroke="#000" stroke-linecap="round" stroke-linejoin="round" fill="none"/>
    <path id="svg_60" d="M555.65,373.994a12.568,12.568,0,0,1,8.608,0" transform="translate(1185 407)" fill="none" stroke="#000" stroke-linecap="round" stroke-linejoin="round" stroke-width="5"/>
    <line id="svg_61" x1="9.966" y2="3.654" stroke-width="5" transform="translate(1730.684 780.994)" stroke="#000" stroke-linecap="round" stroke-linejoin="round" fill="none"/>
    <path id="svg_62" d="M545.684,377.648a13.237,13.237,0,0,1-16.986-7.9,13.619,13.619,0,0,1-.784-5.088" transform="translate(1185 407)" fill="none" stroke="#000" stroke-linecap="round" stroke-linejoin="round" stroke-width="5"/>
    <line id="svg_63" y1="10.616" x2="0.421" stroke-width="5" transform="translate(1712.913 761.12)" stroke="#000" stroke-linecap="round" stroke-linejoin="round" fill="none"/>
    <path id="svg_64" d="M525.675,346.028a12.338,12.338,0,0,1,2.659,8.168" transform="translate(1185 407)" fill="none" stroke="#000" stroke-linecap="round" stroke-linejoin="round" stroke-width="5"/>
  </g>
</svg>
